<svg width="36" height="28" viewBox="0 0 36 28" fill="none" xmlns="http://www.w3.org/2000/svg">
<path fill-rule="evenodd" clip-rule="evenodd" d="M6.125 2.5C4.39911 2.5 3 3.89911 3 5.625V21.875C3 23.6009 4.39911 25 6.125 25H29.875C31.6009 25 33 23.6009 33 21.875V5.625C33 3.89911 31.6009 2.5 29.875 2.5H6.125ZM0.5 5.625C0.5 2.5184 3.0184 0 6.125 0H29.875C32.9816 0 35.5 2.5184 35.5 5.625V21.875C35.5 24.9816 32.9816 27.5 29.875 27.5H6.125C3.0184 27.5 0.5 24.9816 0.5 21.875V5.625Z" fill="#F4AB1D"/>
<path fill-rule="evenodd" clip-rule="evenodd" d="M34.25 11.0938H1.75V6.40625H34.25V11.0938ZM5.65625 17.1875C5.65625 15.8931 6.70558 14.8438 8 14.8438H11.75C13.0444 14.8438 14.0938 15.8931 14.0938 17.1875V18.75C14.0938 20.0444 13.0444 21.0938 11.75 21.0938H8C6.70558 21.0938 5.65625 20.0444 5.65625 18.75V17.1875Z" fill="#F4AB1D"/>
</svg>
