<svg width="40" height="40" viewBox="0 0 40 40" fill="none" xmlns="http://www.w3.org/2000/svg">
<path d="M12.4999 30.3904C12.1026 30.3907 11.7188 30.2463 11.4202 29.9841L1.42025 21.2341C1.24437 21.0801 1.10343 20.8903 1.00687 20.6774C0.910306 20.4646 0.860352 20.2335 0.860352 19.9997C0.860352 19.766 0.910306 19.5349 1.00687 19.322C1.10343 19.1091 1.24437 18.9193 1.42025 18.7654L11.4202 10.0154C11.7477 9.7288 12.1756 9.58407 12.6098 9.61301C13.044 9.64195 13.4489 9.84218 13.7355 10.1697C14.022 10.4971 14.1668 10.925 14.1378 11.3592C14.1089 11.7934 13.9087 12.1983 13.5812 12.4849L4.99134 19.9997L13.5804 27.5146C13.8318 27.7343 14.0101 28.0256 14.0916 28.3494C14.1731 28.6732 14.1538 29.0142 14.0364 29.3268C13.9189 29.6393 13.7089 29.9086 13.4344 30.0987C13.1598 30.2887 12.8338 30.3905 12.4999 30.3904ZM27.4999 30.3904C27.166 30.3906 26.8399 30.289 26.5652 30.099C26.2905 29.909 26.0804 29.6397 25.9629 29.3271C25.8453 29.0145 25.826 28.6735 25.9074 28.3496C25.9889 28.0257 26.1673 27.7344 26.4187 27.5146L35.0085 19.9997L26.4195 12.4849C26.092 12.1983 25.8918 11.7934 25.8628 11.3592C25.8339 10.925 25.9786 10.4971 26.2652 10.1697C26.5517 9.84218 26.9566 9.64195 27.3908 9.61301C27.825 9.58407 28.2529 9.7288 28.5804 10.0154L38.5804 18.7654C38.7563 18.9193 38.8972 19.1091 38.9938 19.322C39.0904 19.5349 39.1403 19.766 39.1403 19.9997C39.1403 20.2335 39.0904 20.4646 38.9938 20.6774C38.8972 20.8903 38.7563 21.0801 38.5804 21.2341L28.5804 29.9841C28.2818 30.2466 27.8976 30.3911 27.4999 30.3904Z" fill="#13528B"/>
</svg>
