<svg width="40" height="40" viewBox="0 0 40 40" fill="none" xmlns="http://www.w3.org/2000/svg">
<path fill-rule="evenodd" clip-rule="evenodd" d="M7.25547 15C6.70016 15 6.25 15.4502 6.25 16.0055V31.4945C6.25 32.0498 6.70016 32.5 7.25547 32.5H32.7445C33.2998 32.5 33.75 32.0498 33.75 31.4945V16.0055C33.75 15.4502 33.2998 15 32.7445 15H7.25547ZM3.75 16.0055C3.75 14.0695 5.31945 12.5 7.25547 12.5H32.7445C34.6805 12.5 36.25 14.0695 36.25 16.0055V31.4945C36.25 33.4305 34.6805 35 32.7445 35H7.25547C5.31945 35 3.75 33.4305 3.75 31.4945V16.0055Z" fill="#F95E1B"/>
<path d="M11.25 6.25H28.75H11.25ZM8.75 10H31.25H8.75Z" fill="#F95E1B"/>
<path fill-rule="evenodd" clip-rule="evenodd" d="M10 6.25C10 5.55964 10.5596 5 11.25 5H28.75C29.4404 5 30 5.55964 30 6.25C30 6.94036 29.4404 7.5 28.75 7.5H11.25C10.5596 7.5 10 6.94036 10 6.25ZM7.5 10C7.5 9.30964 8.05964 8.75 8.75 8.75H31.25C31.9404 8.75 32.5 9.30964 32.5 10C32.5 10.6904 31.9404 11.25 31.25 11.25H8.75C8.05964 11.25 7.5 10.6904 7.5 10Z" fill="#F95E1B"/>
</svg>
