<svg width="40" height="40" viewBox="0 0 40 40" fill="none" xmlns="http://www.w3.org/2000/svg">
<path fill-rule="evenodd" clip-rule="evenodd" d="M5 6.25C4.30964 6.25 3.75 6.80964 3.75 7.5V27.5C3.75 28.1904 4.30964 28.75 5 28.75H35C35.6904 28.75 36.25 28.1904 36.25 27.5V7.5C36.25 6.80964 35.6904 6.25 35 6.25H5ZM1.25 7.5C1.25 5.42893 2.92893 3.75 5 3.75H35C37.0711 3.75 38.75 5.42893 38.75 7.5V27.5C38.75 29.5711 37.0711 31.25 35 31.25H5C2.92893 31.25 1.25 29.5711 1.25 27.5V7.5Z" fill="#3EB489"/>
<path d="M23.75 35L23.125 30H16.875L16.25 35H23.75Z" fill="#3EB489"/>
<path fill-rule="evenodd" clip-rule="evenodd" d="M15.6347 29.845C15.7129 29.2194 16.2446 28.75 16.875 28.75H23.125C23.7554 28.75 24.2872 29.2194 24.3654 29.845L24.9904 34.845C25.0348 35.2007 24.9244 35.5585 24.6871 35.8273C24.4498 36.096 24.1085 36.25 23.75 36.25H16.25C15.8915 36.25 15.5502 36.096 15.3129 35.8273C15.0756 35.5585 14.9652 35.2007 15.0097 34.845L15.6347 29.845ZM17.9785 31.25L17.666 33.75H22.334L22.0215 31.25H17.9785Z" fill="#3EB489"/>
<path fill-rule="evenodd" clip-rule="evenodd" d="M10 35C10 34.3096 10.5596 33.75 11.25 33.75H28.75C29.4404 33.75 30 34.3096 30 35C30 35.6904 29.4404 36.25 28.75 36.25H11.25C10.5596 36.25 10 35.6904 10 35Z" fill="#3EB489"/>
<path d="M2.5 23.75V27.5C2.50186 28.1625 2.76584 28.7973 3.23428 29.2657C3.70272 29.7342 4.33753 29.9981 5 30H35C35.6625 29.9981 36.2973 29.7342 36.7657 29.2657C37.2342 28.7973 37.4981 28.1625 37.5 27.5V23.75H2.5ZM20 28.75C19.7528 28.75 19.5111 28.6767 19.3055 28.5393C19.1 28.402 18.9398 28.2068 18.8451 27.9784C18.7505 27.7499 18.7258 27.4986 18.774 27.2561C18.8223 27.0137 18.9413 26.7909 19.1161 26.6161C19.2909 26.4413 19.5137 26.3222 19.7561 26.274C19.9986 26.2258 20.2499 26.2505 20.4784 26.3452C20.7068 26.4398 20.902 26.6 21.0393 26.8055C21.1767 27.0111 21.25 27.2528 21.25 27.5C21.25 27.8315 21.1183 28.1495 20.8839 28.3839C20.6495 28.6183 20.3315 28.75 20 28.75Z" fill="#3EB489"/>
</svg>
