<svg width="199" height="269" viewBox="0 0 199 269" fill="none" xmlns="http://www.w3.org/2000/svg">
<mask id="mask0_3175_4199" style="mask-type:alpha" maskUnits="userSpaceOnUse" x="0" y="0" width="199" height="269">
<rect width="199" height="269" rx="7" fill="#D9D9D9"/>
</mask>
<g mask="url(#mask0_3175_4199)">
<path d="M114.553 179.6H82.1531V148.4C82.7531 147.8 83.3531 147.5 83.9531 146.9L132.253 104.6H48.5531V62H193.153V100.7L146.353 141.8C176.353 150.8 200.653 174.8 200.653 212.6C200.653 259.4 162.853 287.9 117.853 287.9C74.6531 287.9 38.3531 261.5 38.3531 211.4H86.3531C86.3531 233.3 99.5531 245 119.053 245C137.953 245 150.853 232.1 150.853 212.3C150.853 194.6 140.653 179.6 114.553 179.6Z" fill="#FEEFE8"/>
</g>
</svg>
