<svg width="183" height="182" viewBox="0 0 183 182" fill="none" xmlns="http://www.w3.org/2000/svg">
<path d="M139.078 157.674C139.078 147.631 147.219 139.49 157.262 139.49C167.305 139.49 175.446 147.631 175.446 157.674C175.446 167.716 167.305 175.858 157.262 175.858C147.219 175.858 139.078 167.716 139.078 157.674Z" fill="#3EB489"/>
<path d="M38.5742 169.06C31.4728 176.161 19.9593 176.161 12.858 169.06C5.75665 161.959 5.75665 150.445 12.858 143.344L143.344 12.8581C150.445 5.75675 161.959 5.75674 169.06 12.8581C176.161 19.9594 176.161 31.4729 169.06 38.5742L38.5742 169.06Z" fill="#FDDB9A"/>
<path d="M5.72852 157.672C5.72852 147.629 13.8698 139.488 23.9126 139.488C33.9554 139.488 42.0967 147.629 42.0967 157.672C42.0967 167.714 33.9554 175.856 23.9126 175.856C13.8698 175.856 5.72852 167.714 5.72852 157.672Z" fill="#F9A602"/>
<path opacity="0.5" d="M106.185 169.062C99.0841 176.163 87.5706 176.163 80.4693 169.062C73.368 161.961 73.368 150.447 80.4693 143.346L143.667 80.1484C150.768 73.0471 162.282 73.0471 169.383 80.1484C176.484 87.2497 176.484 98.7632 169.383 105.865L106.185 169.062Z" fill="#0081DF"/>
<path d="M73.3433 157.673C73.3433 147.631 81.4846 139.489 91.5273 139.489C101.57 139.489 109.711 147.631 109.711 157.673C109.711 167.716 101.57 175.858 91.5273 175.858C81.4846 175.858 73.3433 167.716 73.3433 157.673Z" fill="#0081DF"/>
</svg>
