<svg width="145" height="23" viewBox="0 0 145 23" fill="none" xmlns="http://www.w3.org/2000/svg">
<path d="M17.205 19.5063C17.205 18.2639 18.2121 17.2567 19.4545 17.2567C20.6969 17.2567 21.7041 18.2639 21.7041 19.5063C21.7041 20.7487 20.6969 21.7559 19.4545 21.7559C18.2121 21.7559 17.205 20.7487 17.205 19.5063Z" fill="#3EB489"/>
<path d="M4.77232 20.9142C3.89381 21.7927 2.46947 21.7927 1.59096 20.9142C0.712451 20.0357 0.712451 18.6113 1.59096 17.7328L17.7334 1.59036C18.6119 0.711849 20.0363 0.711848 20.9148 1.59036C21.7933 2.46886 21.7933 3.89321 20.9148 4.77172L4.77232 20.9142Z" fill="#FDDB9A"/>
<path d="M0.708883 19.5053C0.708883 18.2629 1.71605 17.2558 2.95844 17.2558C4.20084 17.2558 5.20801 18.2629 5.20801 19.5053C5.20801 20.7477 4.20084 21.7549 2.95845 21.7549C1.71605 21.7549 0.708883 20.7477 0.708883 19.5053Z" fill="#F9A602"/>
<path d="M13.1366 20.9142C12.2581 21.7927 10.8337 21.7927 9.95522 20.9142C9.07671 20.0357 9.07671 18.6113 9.95522 17.7328L17.7734 9.91465C18.6519 9.03615 20.0763 9.03615 20.9548 9.91466C21.8333 10.7932 21.8333 12.2175 20.9548 13.096L13.1366 20.9142Z" fill="#A1BAD1"/>
<path d="M9.07314 19.5053C9.07314 18.2629 10.0803 17.2558 11.3227 17.2558C12.5651 17.2558 13.5723 18.2629 13.5723 19.5053C13.5723 20.7477 12.5651 21.7549 11.3227 21.7549C10.0803 21.7549 9.07314 20.7477 9.07314 19.5053Z" fill="#13528B"/>
<path d="M31.893 1.05913V22.5052H28.1377V1.05913H31.893Z" fill="black"/>
<path d="M39.698 22.5052H36.1188V8.01224H39.434L39.7274 9.88987C40.6368 8.42297 42.3971 7.57217 44.3628 7.57217C48.0007 7.57217 49.8783 9.8312 49.8783 13.5865V22.5052H46.2991V14.4373C46.2991 12.0022 45.0962 10.8287 43.2479 10.8287C41.0476 10.8287 39.698 12.3543 39.698 14.7013V22.5052Z" fill="black"/>
<path d="M51.9574 8.01224H54.0404V6.25196C54.0404 2.32066 56.0354 0.677734 58.9692 0.677734C59.5266 0.677734 60.2014 0.707072 60.8175 0.824424V3.87558H59.556C57.9424 3.87558 57.5903 4.81439 57.5903 6.25196V8.01224H63.3699V0.677734H66.9491V22.5052H63.3699V11.0047H57.5903V22.5052H54.0404V11.0047H51.9574V8.01224Z" fill="black"/>
<path d="M80.5281 8.01224H84.1073V22.5052H80.7921L80.5281 20.5689C79.6479 21.9478 77.7703 22.8866 75.834 22.8866C72.4894 22.8866 70.5238 20.6276 70.5238 17.0777V8.01224H74.103V15.8162C74.103 18.5739 75.1885 19.6888 77.1835 19.6888C79.4426 19.6888 80.5281 18.3686 80.5281 15.6108V8.01224Z" fill="black"/>
<path d="M86.6668 15.2294C86.6668 10.7407 89.63 7.57217 93.9133 7.57217C97.8739 7.57217 100.573 9.77252 100.954 13.2637H97.3752C96.9645 11.6208 95.7616 10.77 94.06 10.77C91.7716 10.77 90.2461 12.501 90.2461 15.2294C90.2461 17.9578 91.6543 19.6594 93.9426 19.6594C95.7323 19.6594 96.9938 18.7793 97.3752 17.195H100.984C100.544 20.5689 97.7273 22.8866 93.9426 22.8866C89.5419 22.8866 86.6668 19.8355 86.6668 15.2294Z" fill="black"/>
<path d="M110.132 22.8866C105.819 22.8866 102.797 19.7474 102.797 15.2587C102.797 10.7113 105.76 7.57217 110.014 7.57217C114.356 7.57217 117.114 10.4766 117.114 14.9947V16.0802L106.2 16.1095C106.464 18.6619 107.814 19.9528 110.19 19.9528C112.156 19.9528 113.447 19.19 113.857 17.8111H117.173C116.557 20.9796 113.916 22.8866 110.132 22.8866ZM110.043 10.506C107.931 10.506 106.64 11.6502 106.288 13.8212H113.564C113.564 11.8262 112.185 10.506 110.043 10.506Z" fill="black"/>
<path d="M123.558 22.5052H119.979V8.01224H123.294L123.587 9.88987C124.497 8.42297 126.257 7.57217 128.223 7.57217C131.86 7.57217 133.738 9.8312 133.738 13.5865V22.5052H130.159V14.4373C130.159 12.0022 128.956 10.8287 127.108 10.8287C124.907 10.8287 123.558 12.3543 123.558 14.7013V22.5052Z" fill="black"/>
<path d="M142.184 22.5052H138.604V11.0047H135.817V8.01224H138.604V3.49418H142.184V8.01224H145V11.0047H142.184V22.5052Z" fill="black"/>
</svg>
